<?xml version="1.0" encoding="utf-8"?>
<!-- Generator: Adobe Illustrator 24.0.2, SVG Export Plug-In . SVG Version: 6.00 Build 0)  -->
<svg version="1.1" id="Layer_1" xmlns="http://www.w3.org/2000/svg" xmlns:xlink="http://www.w3.org/1999/xlink" x="0px" y="0px"
	 viewBox="0 0 227 596" style="enable-background:new 0 0 227 596;" xml:space="preserve">
<style type="text/css">
	.st0{fill:none;stroke:#999999;stroke-width:3;}
	.st1{fill:none;stroke:#999999;stroke-width:3;stroke-dasharray:6.0204,3.0102;}
	.st2{fill:none;stroke:#999999;stroke-width:3;stroke-dasharray:5.7963,2.8981;}
</style>
<g id="dashed">
	<g id="Line_1">
		<g>
			<line class="st0" x1="112.8" y1="0" x2="112.8" y2="3"/>
			<line class="st1" x1="112.8" y1="6" x2="112.8" y2="591.5"/>
			<line class="st0" x1="112.8" y1="593" x2="112.8" y2="596"/>
		</g>
	</g>
	<g id="Line_2">
		<g>
			<line class="st0" x1="113.2" y1="0.8" x2="110.2" y2="0.8"/>
			<line class="st2" x1="107.3" y1="0.8" x2="4.4" y2="0.8"/>
			<line class="st0" x1="3" y1="0.8" x2="0" y2="0.8"/>
		</g>
	</g>
	<g id="Line_3">
		<g>
			<line class="st0" x1="113.2" y1="198.9" x2="110.2" y2="198.9"/>
			<line class="st2" x1="107.3" y1="198.9" x2="4.4" y2="198.9"/>
			<line class="st0" x1="3" y1="198.9" x2="0" y2="198.9"/>
		</g>
	</g>
	<g id="Line_4">
		<g>
			<line class="st0" x1="113.2" y1="397.1" x2="110.2" y2="397.1"/>
			<line class="st2" x1="107.3" y1="397.1" x2="4.4" y2="397.1"/>
			<line class="st0" x1="3" y1="397.1" x2="0" y2="397.1"/>
		</g>
	</g>
	<g id="Line_5">
		<g>
			<line class="st0" x1="113.2" y1="595.2" x2="110.2" y2="595.2"/>
			<line class="st2" x1="107.3" y1="595.2" x2="4.4" y2="595.2"/>
			<line class="st0" x1="3" y1="595.2" x2="0" y2="595.2"/>
		</g>
	</g>
	<g id="Line_6">
		<g>
			<line class="st0" x1="226.2" y1="297.8" x2="223.2" y2="297.8"/>
			<line class="st2" x1="220.3" y1="297.8" x2="117.4" y2="297.8"/>
			<line class="st0" x1="116" y1="297.8" x2="113" y2="297.8"/>
		</g>
	</g>
</g>
</svg>
