<?xml version="1.0" standalone="no"?>
<!DOCTYPE svg PUBLIC "-//W3C//DTD SVG 20010904//EN"
 "http://www.w3.org/TR/2001/REC-SVG-20010904/DTD/svg10.dtd">
<svg version="1.0" xmlns="http://www.w3.org/2000/svg"
 width="240.000000pt" height="240.000000pt" viewBox="0 0 240.000000 240.000000"
 preserveAspectRatio="xMidYMid meet">
<metadata>
Created by potrace 1.11, written by Peter Selinger 2001-2013
</metadata>
<g transform="translate(0.000000,240.000000) scale(0.100000,-0.100000)"
fill="#000000" stroke="none">
<path d="M867 2334 c-3 -3 -3 -20 -1 -37 2 -18 6 -54 8 -82 2 -27 5 -53 5 -56
1 -4 31 -6 69 -6 63 0 162 -9 207 -19 11 -2 31 -6 45 -8 14 -2 59 -14 100 -27
41 -13 80 -23 85 -24 6 0 12 -2 15 -5 3 -3 37 -20 75 -38 161 -78 335 -219
436 -357 55 -74 121 -175 115 -175 -3 0 10 -30 28 -67 18 -38 37 -81 41 -98 5
-16 9 -34 11 -40 27 -94 44 -173 48 -237 2 -15 19 -20 99 -23 95 -5 101 -1 86
60 -4 17 -10 48 -13 70 -27 197 -131 443 -258 613 -52 69 -252 272 -269 272
-5 0 -18 8 -28 18 -37 32 -50 42 -61 42 -5 0 -10 4 -10 8 0 4 -15 15 -32 23
-18 9 -53 27 -78 41 -95 52 -303 123 -390 133 -19 2 -46 7 -60 10 -34 8 -266
15 -273 9z"/>
<path d="M895 1867 c3 -50 6 -92 8 -93 1 -1 40 -4 87 -8 114 -8 139 -12 212
-37 272 -91 470 -300 547 -578 11 -39 17 -71 13 -71 -3 0 -2 -4 4 -10 5 -5 50
-12 100 -15 l91 -6 -3 26 c-15 141 -91 333 -182 460 -47 65 -152 170 -222 222
-164 122 -367 191 -582 198 l-79 2 6 -90z"/>
<path d="M747 1604 c-1 -2 -14 -5 -27 -7 -245 -47 -453 -199 -562 -412 -47
-91 -81 -232 -81 -340 -1 -88 19 -215 34 -215 5 0 6 -7 3 -15 -4 -8 -2 -21 3
-28 5 -6 20 -38 33 -70 12 -31 26 -57 31 -57 5 0 9 -6 9 -13 0 -7 9 -23 20
-35 11 -12 20 -25 20 -29 0 -12 80 -93 91 -93 6 0 8 -4 5 -8 -11 -18 215 -159
235 -147 5 4 9 2 9 -4 0 -20 189 -58 280 -56 87 2 213 25 245 44 6 3 12 6 15
6 21 3 50 18 50 26 0 6 5 7 10 4 13 -8 128 67 193 125 67 60 164 196 159 223
-1 4 1 7 6 7 8 0 31 47 36 76 3 11 9 32 15 47 24 62 33 251 17 344 -21 123
-93 271 -181 371 -49 54 -156 142 -174 142 -6 0 -11 4 -11 9 0 18 -180 85
-260 97 -43 7 -218 13 -223 8z m243 -199 c30 -9 62 -17 70 -18 8 -1 20 -5 25
-10 6 -4 37 -25 70 -46 71 -45 165 -135 174 -166 1 -5 15 -33 31 -61 78 -136
85 -368 15 -504 -8 -16 -15 -33 -14 -36 0 -4 -3 -10 -8 -13 -5 -3 -23 -26 -40
-51 -25 -37 -102 -113 -148 -148 -15 -12 -117 -59 -145 -68 -97 -31 -220 -35
-310 -11 -8 2 -28 7 -45 12 -16 4 -51 19 -77 32 -27 13 -51 24 -55 26 -4 1
-18 12 -31 24 -14 13 -30 20 -36 16 -6 -3 -8 -3 -4 1 9 10 -34 55 -46 48 -5
-3 -6 0 -2 6 3 6 -2 17 -12 24 -10 7 -27 28 -37 46 -11 17 -24 32 -29 32 -5 0
-6 3 -3 7 4 3 -2 20 -12 37 -27 43 -49 111 -56 176 -8 60 -7 158 0 170 3 4 7
25 10 46 5 45 56 152 97 205 15 20 28 42 28 48 0 6 4 10 8 8 4 -1 26 16 48 38
22 22 49 45 60 51 55 32 123 65 140 69 10 2 42 10 69 18 63 17 193 13 265 -8z"/>
<path d="M717 1231 c-299 -97 -383 -476 -154 -691 23 -22 48 -40 54 -40 7 0
13 -4 13 -9 0 -17 116 -53 185 -57 130 -8 228 29 320 121 49 49 66 75 89 135
33 89 38 197 11 270 -9 25 -17 50 -19 57 -6 30 -85 124 -133 157 -104 73 -248
95 -366 57z"/>
</g>
</svg>
